<svg width="21" height="22" viewBox="0 0 21 22" fill="#fff" xmlns="http://www.w3.org/2000/svg">
<g clip-path="url(#clip0_30_661)">
<path d="M6.83006 18.7384C5.63339 17.8299 5.28405 15.921 5.78264 14.538C6.6471 15.41 7.84491 15.6861 9.08564 15.8421C11.001 16.0827 12.882 15.9927 14.6613 15.2656C14.8649 15.1823 15.053 15.0717 15.2754 14.9595C15.4423 15.3618 15.4858 15.768 15.4275 16.1813C15.2857 17.188 14.6825 17.9656 13.7231 18.5551C13.3395 18.7909 12.9335 19.0016 12.5373 19.224C11.32 19.9073 10.9907 20.7085 11.4481 21.874C11.459 21.9023 11.4687 21.9307 11.4933 22C10.8718 21.7691 10.4178 21.4327 10.0719 20.9905C9.70654 20.5237 9.53272 20.0074 9.52359 19.4487C9.51902 19.1768 9.51902 18.9025 9.47499 18.6345C9.36749 17.981 8.99814 17.6885 8.30234 17.6716C7.5882 17.6543 7.02333 18.021 6.87353 18.5984C6.86207 18.6427 6.8455 18.6865 6.82892 18.7379L6.83006 18.7384Z" fill="black"/>
<path d="M0 14.3076C0 14.3076 3.54355 12.8739 7.097 12.8739L9.7762 5.98739C9.87648 5.65437 10.1693 5.42804 10.5 5.42804C10.8307 5.42804 11.1235 5.65437 11.2238 5.98739L13.903 12.8739C18.1115 12.8739 21 14.3076 21 14.3076C21 14.3076 14.981 0.689266 14.9692 0.661943C14.7965 0.259313 14.5048 0 14.1117 0H6.88896C6.49578 0 6.21593 0.259313 6.03138 0.661943C6.01842 0.688753 0 14.3076 0 14.3076Z" fill="black"/>
</g>
<defs>
<clipPath id="clip0_30_661">
<rect width="21" height="22" fill="white"/>
</clipPath>
</defs>
</svg>
