<svg width="25" height="25" viewBox="0 0 25 25" fill="none" xmlns="http://www.w3.org/2000/svg">
<path d="M12.5 1C12.1426 1 11.7871 1.08985 11.4668 1.26953L3.04492 6.00195C2.40429 6.36328 2 7.0371 2 7.76757V17.2324C2 17.9648 2.40429 18.6387 3.04492 19L11.4668 23.7305C12.1074 24.0918 12.8926 24.0918 13.5332 23.7305L21.9551 19C22.5977 18.6387 23 17.9629 23 17.2324V7.76757C23 7.0371 22.5957 6.36328 21.9551 6.00195L13.5332 1.26953C13.2129 1.08985 12.8574 1 12.5 1ZM12.5 2C12.6875 2 12.877 2.04688 13.0449 2.14062L21.4668 6.87304C21.8008 7.0625 22 7.40234 22 7.76757V12H21V11H20V12H19V13H20V14H21V13H22V17.2324C22 17.5976 21.8008 17.9375 21.4648 18.1269L13.0449 22.8594C12.709 23.0469 12.291 23.0469 11.9551 22.8594L3.53516 18.1269C3.19923 17.9375 3.00001 17.5996 3.00001 17.2324V7.76757C3.00001 7.40234 3.19923 7.06249 3.53516 6.87304L11.9551 2.14062C12.1231 2.04687 12.3125 2 12.5 2ZM12.5 6C8.91992 6 6 8.91992 6 12.5C6 16.0801 8.91992 19 12.5 19C14.5449 19 16.4434 18.0469 17.6699 16.4316L18.0117 15.9805L14.9844 14.2266L14.7109 14.5234C14.1465 15.1406 13.3457 15.5 12.5 15.5C10.8418 15.5 9.5 14.1582 9.5 12.5C9.5 10.8418 10.8418 9.5 12.5 9.5C13.3457 9.5 14.1465 9.85938 14.7109 10.4766L14.9844 10.7734L18.0117 9.01954L17.6699 8.56837C16.4434 6.95313 14.5449 6 12.5 6ZM12.5 7C14.0371 7 15.4434 7.65821 16.4727 8.75586L15.1016 9.54883C14.3789 8.91602 13.4805 8.5 12.5 8.5C10.2988 8.5 8.5 10.2988 8.5 12.5C8.5 14.7012 10.2988 16.5 12.5 16.5C13.4805 16.5 14.3789 16.084 15.1016 15.4512L16.4727 16.2441C15.4434 17.3418 14.0371 18 12.5 18C9.46289 18 7 15.5371 7 12.5C7 9.46289 9.46289 7 12.5 7ZM16.5 11V12H15.5V13H16.5V14H17.5V13H18.5V12H17.5V11H16.5Z" fill="black"/>
</svg>
