<svg width="30" height="30" viewBox="0 0 30 30" fill="none" xmlns="http://www.w3.org/2000/svg">
    <path
        d="M5.07615 5.42831C5.53709 5.42831 5.91076 5.02684 5.91076 4.5316C5.91076 4.03636 5.53709 3.63489 5.07615 3.63489C4.61521 3.63489 4.24155 4.03636 4.24155 4.5316C4.24155 5.02684 4.61521 5.42831 5.07615 5.42831Z"
        fill="white" />
    <path
        d="M8.01596 5.42831C8.4769 5.42831 8.85056 5.02684 8.85056 4.5316C8.85056 4.03636 8.4769 3.63489 8.01596 3.63489C7.55502 3.63489 7.18135 4.03636 7.18135 4.5316C7.18135 5.02684 7.55502 5.42831 8.01596 5.42831Z"
        fill="white" />
    <path
        d="M10.9558 5.42831C11.4167 5.42831 11.7904 5.02684 11.7904 4.5316C11.7904 4.03636 11.4167 3.63489 10.9558 3.63489C10.4948 3.63489 10.1212 4.03636 10.1212 4.5316C10.1212 5.02684 10.4948 5.42831 10.9558 5.42831Z"
        fill="white" />
    <path
        d="M19.226 19.6742L21.9489 29.2904C22.2126 30.2217 23.4333 30.2418 23.723 29.3183L24.9977 25.2541C25.0437 25.1079 25.1204 24.9751 25.222 24.866C25.3235 24.7569 25.4471 24.6744 25.5832 24.6251L29.3659 23.2555C30.2244 22.9443 30.2067 21.6327 29.3399 21.3494L20.3897 18.4239C20.2281 18.3717 20.0563 18.3675 19.8926 18.4118C19.7289 18.4561 19.5795 18.5472 19.4601 18.6754C19.3408 18.8036 19.256 18.9642 19.2148 19.1401C19.1736 19.3159 19.1775 19.5005 19.226 19.6742Z"
        fill="white" />
    <path
        d="M17.7375 20.1604C17.6222 19.7614 17.5965 19.3387 17.6625 18.9269C17.7286 18.5152 17.8845 18.1261 18.1174 17.7915C18.3488 17.4564 18.6496 17.1838 18.9961 16.9955C19.3427 16.8071 19.7253 16.7081 20.1136 16.7063C20.3596 16.7063 20.6046 16.7453 20.8434 16.8234L28.8905 19.4522V4.14897C28.8905 1.86258 27.1569 0 25.0289 0H3.86161C1.73357 0 0 1.86258 0 4.14897V22.719C0 23.8223 0.407941 24.8804 1.13408 25.6606C1.86022 26.4408 2.84508 26.8791 3.87199 26.8791H19.6382L17.7375 20.1604ZM1.86852 7.0711V4.15009C1.86852 2.96897 2.7623 2.00868 3.86161 2.00868H25.0278C26.1271 2.00868 27.0209 2.96897 27.0209 4.15009V7.0711H1.86852Z"
        fill="white" />
</svg>