<svg width="24" height="24" viewBox="0 0 24 24" fill="none" xmlns="http://www.w3.org/2000/svg">
<path d="M8.88005 0.959961C6.63246 0.959961 4.80005 2.79237 4.80005 5.03996C4.80005 6.6241 5.73602 7.96453 7.06036 8.63996C5.73601 9.31539 4.80005 10.6558 4.80005 12.24C4.80005 13.8241 5.73602 15.1645 7.06036 15.84C5.73601 16.5154 4.80005 17.8558 4.80005 19.44C4.80005 21.6876 6.63246 23.52 8.88005 23.52C11.1276 23.52 12.96 21.6876 12.96 19.44V15.84V14.235C13.6039 15.4568 14.8474 16.32 16.32 16.32C18.4351 16.32 20.16 14.595 20.16 12.48C20.16 10.7415 18.9726 9.32573 17.3832 8.85559C18.9858 8.30478 20.16 6.82567 20.16 5.03996C20.16 2.79237 18.3276 0.959961 16.08 0.959961H12.48H8.88005ZM8.88005 1.91996H12V8.15996H8.88005C7.15132 8.15996 5.76005 6.76869 5.76005 5.03996C5.76005 3.31123 7.15132 1.91996 8.88005 1.91996ZM12.96 1.91996H16.08C17.8088 1.91996 19.2 3.31123 19.2 5.03996C19.2 6.76869 17.8088 8.15996 16.08 8.15996H12.96V1.91996ZM8.88005 9.11996H12V15.36H8.88005C7.15132 15.36 5.76005 13.9687 5.76005 12.24C5.76005 10.5112 7.15132 9.11996 8.88005 9.11996ZM12.96 9.11996H14.565C13.8763 9.48291 13.323 10.0362 12.96 10.725V9.11996ZM16.32 9.59996C17.9163 9.59996 19.2 10.8837 19.2 12.48C19.2 14.0762 17.9163 15.36 16.32 15.36C14.7238 15.36 13.44 14.0762 13.44 12.48C13.44 10.8837 14.7238 9.59996 16.32 9.59996ZM8.88005 16.32H12V19.44C12 21.1687 10.6088 22.56 8.88005 22.56C7.15132 22.56 5.76005 21.1687 5.76005 19.44C5.76005 17.7112 7.15132 16.32 8.88005 16.32Z" fill="black"/>
</svg>
