<svg width="46" height="35" viewBox="0 0 46 35" fill="none" xmlns="http://www.w3.org/2000/svg">
<path d="M10 16.403V16.39V3.38899L9.88 3.29999H9.87L7.14 1.27999C5.47 0.0399864 3.09 0.0999871 1.61 1.55999C0.62 2.53999 0 3.89999 0 5.40999V9.01199L10 16.403ZM36 16.39V16.403L46 9.01199V5.40999C46 3.91999 45.4 2.55999 44.42 1.57999C42.96 0.122987 40.655 -0.0480133 38.996 1.17699L36.12 3.29999L36 3.38899V16.39ZM12 17.868L22.406 25.56C22.759 25.821 23.242 25.821 23.595 25.56L34 17.868V4.86699L23 13L12 4.86699V17.868ZM36 18.889V34C36 34.552 36.448 35 37 35H43.5C44.881 35 46 33.881 46 32.5V11.497L36 18.889ZM10 18.889L0 11.497V32.5C0 33.881 1.119 35 2.5 35H9C9.552 35 10 34.552 10 34V18.889Z" fill="white"/>
</svg>
