<svg width="25" height="25" viewBox="0 0 25 25" fill="none" xmlns="http://www.w3.org/2000/svg">
<path d="M3.33399 2C2.60352 2 2 2.60352 2 3.33399V21.666C2 22.3965 2.60352 23 3.33399 23H21.666C22.3965 23 23 22.3984 23 21.666V3.33399C23 2.60352 22.3984 2 21.666 2H3.33399ZM3.33399 3H21.666C21.8516 3 22 3.14844 22 3.33399V21.666C22 21.8516 21.8516 22 21.666 22H3.33399C3.14844 22 3 21.8516 3 21.666V3.33399C3 3.14844 3.14844 3 3.33399 3ZM11.5 11.5V17.7871C11.5 18.752 11.1348 19 10.5 19C9.83594 19 9.375 18.5859 9.07032 18.0488L7.5 19C7.95508 19.9629 9.07032 21 10.6172 21C12.3281 21 13.5 20.0898 13.5 18.0918V11.5H11.5ZM17.7266 11.5C16.0234 11.5 14.9316 12.5898 14.9316 14.0215C14.9316 15.5742 15.8477 16.3086 17.2246 16.8945L17.7012 17.0996C18.5703 17.4805 19 17.7129 19 18.3672C19 18.9121 18.5859 19.3066 17.7949 19.3066C16.8535 19.3066 16.4082 18.668 16 18L14.5 19C15.0606 20.1074 16.0664 21 17.8379 21C19.6504 21 21 20.0586 21 18.3418C21 16.7481 20.086 16.0391 18.4629 15.3438L17.9863 15.1406C17.168 14.7852 16.8125 14.5547 16.8125 13.9824C16.8125 13.5195 17.168 13.1641 17.7266 13.1641C18.2754 13.1641 18.627 13.3965 18.9531 13.9824L20.4395 13.0293C19.8125 11.9219 18.9395 11.5 17.7266 11.5Z" fill="black"/>
</svg>
