<svg width="25" height="25" viewBox="0 0 25 25" fill="none" xmlns="http://www.w3.org/2000/svg">
<path d="M10.9062 0C9.53125 3.18164 15.8359 5.14649 16.4219 7.79688C16.959 10.2324 12.6758 13.0625 12.6719 13.0625C13.3223 12.0547 13.8008 11.2246 14.4531 9.65625C15.5566 7.00391 7.73242 4.60352 10.9062 0ZM6.71875 4.40625C6.71875 4.40625 12.25 4.76172 12.5312 8.29688C12.6562 9.87109 11.0762 10.6992 11.0312 11.8438C10.9941 12.7793 11.9688 13.5625 11.9688 13.5625C11.9688 13.5625 10.1953 13.2246 9.64062 11.7969C9.02539 10.2129 10.8398 9.14258 10.6562 7.875C10.4805 6.66211 6.71875 4.40625 6.71875 4.40625ZM15.4062 12.5781C15.4062 12.5781 20.4688 12.5059 20.4688 13.9375C20.4688 15.4336 13.8418 15.5449 9.10938 14.625C9.10938 14.625 7.85156 13.7598 7.51562 13.4375C10.6172 14.0703 17.6875 14.1406 17.6875 13.5938C17.6875 13.0898 15.4062 12.5781 15.4062 12.5781ZM5.67188 12.5781C6.16797 12.6172 6.70312 12.8086 7.1875 13.1562C6.04688 12.9102 5.07812 13.6172 5.07812 14.4219C5.07812 16.2344 7.70312 17.9375 7.70312 17.9375C7.70312 17.9375 3.64062 17.4766 3.64062 14.5C3.64062 13.1484 4.58008 12.4922 5.67188 12.5781ZM16.625 15.3594C17.4023 15.3594 18.5625 15.9688 18.5625 16.5469C18.5625 17.709 12.7188 18.6035 8.39062 16.9062L9.89062 15.9844C12.8242 16.9238 18.2266 16.6172 16.625 15.3594ZM15.9062 17.9688C16.9707 17.9688 17.6719 18.6113 17.6719 19.0938C17.6719 20.5859 11.3145 20.7363 8.79688 19.2188L10.3906 18.2031C12.2715 18.998 16.9922 19.1191 15.9062 17.9688ZM19.4531 19.3125C21.1875 19.2773 22.3125 20.0566 22.3125 20.7031C22.3125 24.1406 4.5625 23.9824 4.5625 20.4688C4.5625 19.8848 5.23633 19.6016 5.48438 19.4688C4.03321 22.8281 20.0156 22.5605 20.0156 20.5781C20.0156 20.127 18.8398 19.6953 17.75 19.9062L18.6719 19.375C18.9434 19.334 19.2051 19.3184 19.4531 19.3125ZM2.6875 21.625C5.38672 24.1836 12.2266 25.1113 19.1094 23.5312C12.2285 26.3477 2.7207 24.7676 2.6875 21.625Z" fill="black"/>
</svg>
