<svg width="25" height="25" viewBox="0 0 25 25" fill="none" xmlns="http://www.w3.org/2000/svg">
<g clip-path="url(#clip0_30_709)">
<path d="M15.584 4.00002C15.3496 3.99416 15.1445 4.08401 15.0391 4.34377C14.8594 4.77932 15.3066 5.2051 15.4668 5.42776C15.5781 5.58205 15.7227 5.75588 15.8027 5.92971C15.8555 6.04495 15.8633 6.16018 15.9082 6.28128C16.0195 6.58011 16.1973 6.91995 16.3399 7.19729C16.4121 7.33792 16.4922 7.4844 16.584 7.6094C16.6406 7.68557 16.7363 7.72073 16.752 7.83792C16.6582 7.97073 16.6524 8.17581 16.5996 8.34378C16.3613 9.09573 16.4512 10.0313 16.7969 10.586C16.9043 10.7578 17.1563 11.1231 17.5 10.9844C17.8008 10.8614 17.7344 10.4805 17.8203 10.1426C17.8399 10.0684 17.8281 10.0118 17.8672 9.96097V9.9766C17.957 10.1602 18.0488 10.3438 18.1406 10.5254C18.3457 10.8536 18.707 11.1953 19.0117 11.4278C19.1699 11.5469 19.2949 11.7539 19.5 11.8243V11.8086H19.4844C19.4453 11.7461 19.3828 11.7207 19.332 11.6719C19.2129 11.5547 19.0801 11.4082 18.9824 11.2735C18.7031 10.8965 18.457 10.4825 18.2344 10.0528C18.127 9.84769 18.0332 9.62113 17.9434 9.41215C17.9082 9.33012 17.9082 9.20902 17.836 9.16605C17.7363 9.32035 17.5918 9.4434 17.5156 9.62504C17.3945 9.9141 17.377 10.2676 17.332 10.6329C17.3047 10.6426 17.3164 10.6348 17.3028 10.6485C17.0899 10.5957 17.0137 10.377 16.9356 10.1895C16.7363 9.71488 16.6973 8.94926 16.875 8.40434C16.9199 8.26176 17.125 7.81645 17.043 7.68559C17.0039 7.55473 16.8711 7.48051 16.7989 7.3809C16.7071 7.25786 16.6172 7.09575 16.5547 6.95317C16.3907 6.58207 16.2364 6.15239 16.0625 5.77739C15.9805 5.5977 15.8418 5.41801 15.7266 5.25786C15.5996 5.08208 15.459 4.95317 15.3594 4.73833C15.3262 4.66411 15.2774 4.54302 15.3301 4.46489C15.3457 4.41216 15.3692 4.39067 15.4219 4.3731C15.5098 4.30474 15.7559 4.39458 15.8496 4.43364C16.0938 4.53521 16.2989 4.63286 16.5059 4.76958C16.6055 4.83599 16.7051 4.96294 16.8262 5.00005H16.9629C17.1797 5.04888 17.42 5.01372 17.6192 5.07622C17.9746 5.18364 18.293 5.35161 18.5801 5.53325C19.461 6.08794 20.1817 6.87896 20.6719 7.82232C20.752 7.97466 20.7871 8.12115 20.8575 8.2813C20.9961 8.60552 21.1739 8.94146 21.3145 9.25787C21.4532 9.57623 21.5899 9.89459 21.7871 10.1583C21.8907 10.2969 22.293 10.3731 22.4746 10.4493C22.6016 10.504 22.8125 10.5606 22.9317 10.6329C23.1641 10.7715 23.3868 10.9376 23.6035 11.0919C23.7129 11.168 24.045 11.334 24.0625 11.4727C23.5254 11.459 23.1153 11.5079 22.7657 11.6563C22.666 11.6993 22.5059 11.6993 22.4903 11.8243C22.543 11.8809 22.5528 11.9669 22.5957 12.0372C22.6797 12.1719 22.8203 12.3536 22.9473 12.4493C23.086 12.5528 23.2266 12.6641 23.375 12.7559C23.6368 12.9141 23.9297 13.0059 24.1836 13.1661C24.3321 13.2618 24.4825 13.3809 24.627 13.4864C24.6993 13.5411 24.7461 13.6231 24.8399 13.6563V13.6407C24.7911 13.5782 24.7793 13.4922 24.7344 13.4278L24.5332 13.2266C24.3399 12.9708 24.0938 12.7442 23.8321 12.5567C23.6231 12.4063 23.1563 12.2032 23.0704 11.961L23.0547 11.9454C23.2012 11.9297 23.375 11.8751 23.5118 11.838C23.7422 11.7774 23.9454 11.793 24.1817 11.7325C24.2891 11.7012 24.3965 11.67 24.5039 11.6407V11.5782C24.3848 11.4571 24.2989 11.293 24.168 11.1817C23.8262 10.8907 23.4532 10.5997 23.0684 10.3575C22.8555 10.2227 22.5918 10.1348 22.3672 10.0215C22.2911 9.98249 22.1582 9.96295 22.1075 9.8985C21.9883 9.74811 21.9239 9.55671 21.8321 9.38092C21.6407 9.01178 21.4532 8.60944 21.2832 8.22077C21.168 7.9571 21.0918 7.69538 20.9473 7.4571C20.2539 6.31843 19.5079 5.62897 18.3516 4.95319C18.1055 4.80866 17.8106 4.75397 17.4981 4.67976C17.3282 4.66804 17.1622 4.65827 16.9922 4.64851C16.8907 4.60554 16.7832 4.48054 16.6875 4.41804C16.4473 4.26765 15.9746 4.00588 15.584 4.00002ZM17.2383 5.65627C17.127 5.65432 17.0469 5.66994 16.9629 5.68752V5.70315H16.9785C17.0313 5.81252 17.127 5.88284 17.1934 5.97659C17.2441 6.08401 17.293 6.19143 17.3438 6.29885L17.3594 6.28323C17.4531 6.21682 17.498 6.1094 17.498 5.94729C17.459 5.90823 17.4531 5.85745 17.4219 5.81057C17.377 5.74612 17.293 5.71096 17.2383 5.65627ZM0.933597 11.9981C0.783207 12.0039 0.619142 12.0332 0.441407 12.0899C0.144532 12.1797 -0.00195312 12.3574 -0.00195312 12.7188V16.5H1V12.8106L2.38867 15.9649C2.56055 16.3574 2.79492 16.4981 3.25391 16.4981C3.71485 16.4981 3.93945 16.3574 4.11133 15.9649L5.5 12.8906V16.5H6.5V12.7188C6.5 12.3574 6.35547 12.1797 6.05664 12.0899C5.3457 11.8652 4.86718 12.0586 4.65234 12.5449L3.22656 15.752L1.84766 12.5449C1.69141 12.1797 1.37891 11.9805 0.933597 11.9981ZM13.123 12C12.7285 12 11.5 12.0469 11.5 13V13.6172C11.5 14.0547 11.8848 14.4121 12.7188 14.5C12.8125 14.5059 12.9063 14.5137 13 14.5137C13 14.5137 13.9727 14.4942 14 14.5C14.5625 14.5 14.5 14.9375 14.5 15V15.5C14.5 15.5684 14.4844 16 13.9941 16H11.5V16.5H14.0039C14.332 16.5 14.6504 16.4317 14.9043 16.3125C15.3262 16.1192 15.5 15.8574 15.5 15.5137V14.7989C15.5 14.0313 14.5469 14 14 14H13C12.6074 14 12.5469 13.7617 12.5 13.5V13C12.5469 12.8008 12.6348 12.5313 12.9824 12.5H15.5V12H13.123ZM16.9902 12C16.252 12.1016 15.9922 12.4688 15.9922 13V15.5C15.9922 15.9864 16.2637 16.2793 16.8223 16.4317C17.0098 16.4844 17.1797 16.5059 17.3399 16.5059L18.4531 16.5H19.1074L19.6641 17H20.7891L20.0156 16.3028C20.3789 16.1524 20.4922 15.9219 20.4922 15.4903V13C20.4922 12.4688 20.1465 12.1016 19.4082 12H16.9902ZM21 12V15.4785C21 16.0821 21.3418 16.4219 22.2461 16.4903C22.3301 16.4942 22.416 16.5 22.5 16.5H25V16H22.6895C22.1738 16 22 15.7832 22 15.4746V12H21ZM17.5859 12.5H18.8731C19.2129 12.5 19.4414 12.7735 19.4922 13C19.4922 13 19.5 15.3281 19.5 15.5C19.5 15.6719 19.4043 15.75 19.4043 15.75L19.1328 15.5H18L18.5566 16H17.5859C17.2383 16 17.043 15.7422 16.9922 15.5V13.0508C16.9922 12.7852 17.1953 12.5 17.5859 12.5ZM7 13.5C7.01953 13.5196 7 15.6309 7 15.6719C7.00782 16.1094 7.5625 16.4922 8.43164 16.5H10V16.5332C10 16.627 10.0684 16.9395 9.5 17C9.49414 17 7.00586 17 7 17V17.5H9.60742C10.0488 17.4864 11.0059 17.3867 11 16.6211C11 16.6074 11.0039 13.5 11 13.5H10V16C9.98438 16 8.76172 16.0039 8.51563 16C8.03321 15.9922 7.99219 15.7168 8 15.6114V13.5H7Z" fill="black"/>
</g>
<defs>
<clipPath id="clip0_30_709">
<rect width="25" height="25" fill="white"/>
</clipPath>
</defs>
</svg>
