<svg width="26" height="25" viewBox="0 0 26 25" fill="none" xmlns="http://www.w3.org/2000/svg">
<path d="M12.9775 1C10.8928 1 9.47831 1.48438 8.57944 2.1875C7.68058 2.89062 7.32745 3.79492 7.32745 4.54688V7H12.4638V7.5H4.80743C3.86844 7.5 2.9154 7.89648 2.23924 8.73438C1.56309 9.57227 1.16382 10.8223 1.16382 12.5C1.16382 14.1777 1.56309 15.4277 2.23924 16.2656C2.9154 17.1035 3.86844 17.5 4.80743 17.5H7.32745V20.4531C7.32745 21.2051 7.68058 22.1094 8.57944 22.8125C9.47831 23.5156 10.8928 24 12.9775 24C15.0621 24 16.4766 23.5156 17.3755 22.8125C18.2743 22.1094 18.6275 21.2051 18.6275 20.4531V18H13.4911V17.5H21.1475C22.0865 17.5 23.0395 17.1035 23.7157 16.2656C24.3918 15.4277 24.7911 14.1777 24.7911 12.5C24.7911 10.8223 24.3918 9.57227 23.7157 8.73438C23.0395 7.89648 22.0865 7.5 21.1475 7.5H18.6275V4.54688C18.6275 3.77539 18.2763 2.86914 17.3755 2.17188C16.4746 1.47461 15.0601 1 12.9775 1ZM12.9775 2C14.9016 2 16.0673 2.4375 16.7334 2.95312C17.3995 3.46875 17.6002 4.06836 17.6002 4.54688V10.5C17.6002 11.3281 16.91 12 16.0593 12H9.89564C8.83827 12 7.92737 12.6348 7.53612 13.5312C7.46991 13.6797 7.40972 13.8379 7.37561 14C7.3415 14.1621 7.32745 14.3281 7.32745 14.5V16.5H4.80743C4.15535 16.5 3.55143 16.252 3.05785 15.6406C2.56428 15.0293 2.19109 14.0215 2.19109 12.5C2.19109 10.9785 2.56428 9.9707 3.05785 9.35938C3.55143 8.74805 4.15535 8.5 4.80743 8.5H13.4911V6H8.35473V4.54688C8.35473 4.09961 8.55336 3.49023 9.22149 2.96875C9.88962 2.44727 11.0553 2 12.9775 2ZM10.4093 3.5C9.84347 3.5 9.382 3.94922 9.382 4.5C9.382 5.05078 9.84347 5.5 10.4093 5.5C10.9751 5.5 11.4365 5.05078 11.4365 4.5C11.4365 3.94922 10.9751 3.5 10.4093 3.5ZM18.6275 8.5H21.1475C21.7996 8.5 22.4035 8.74805 22.8971 9.35938C23.3906 9.9707 23.7638 10.9785 23.7638 12.5C23.7638 14.0215 23.3906 15.0293 22.8971 15.6406C22.4035 16.252 21.7996 16.5 21.1475 16.5H12.4638V19H17.6002V20.4531C17.6002 20.9004 17.4015 21.5098 16.7334 22.0312C16.0653 22.5527 14.8996 23 12.9775 23C11.0553 23 9.88962 22.5527 9.22149 22.0312C8.55336 21.5098 8.35473 20.9004 8.35473 20.4531V14.5C8.35473 14.3965 8.36677 14.3008 8.38683 14.2031C8.53129 13.5195 9.15126 13 9.89564 13H16.0593C17.4698 13 18.6275 11.873 18.6275 10.5V8.5ZM15.5456 19.5C14.9798 19.5 14.5184 19.9492 14.5184 20.5C14.5184 21.0508 14.9798 21.5 15.5456 21.5C16.1114 21.5 16.5729 21.0508 16.5729 20.5C16.5729 19.9492 16.1114 19.5 15.5456 19.5Z" fill="black"/>
</svg>
