<svg width="25" height="25" viewBox="0 0 25 25" fill="none" xmlns="http://www.w3.org/2000/svg">
<path d="M8.89974 3.48468C8.39057 3.48468 7.91833 3.59866 7.5 3.8395C6.19261 4.59432 5.69497 6.43376 5.95866 8.72394C3.84392 9.64067 2.5 10.9905 2.5 12.5C2.5 14.0094 3.84392 15.3593 5.95866 16.276C5.69511 18.5661 6.19261 20.4056 7.5 21.1605C7.9175 21.4013 8.38974 21.5153 8.89974 21.5153C9.98526 21.5153 11.2399 20.9705 12.5 20.0358C13.7602 20.9705 15.0164 21.5153 16.1019 21.5153C16.6111 21.5153 17.0833 21.4013 17.5016 21.1605C18.809 20.4056 19.3066 18.5662 19.043 16.276C21.1569 15.3593 22.5 14.0091 22.5 12.5C22.5 10.9905 21.1561 9.64067 19.0413 8.72394C19.3049 6.43385 18.8074 4.59432 17.5 3.8395C17.0825 3.59783 16.6103 3.48468 16.1003 3.48468C15.0147 3.48468 13.7601 4.02949 12.5 4.96417C11.2398 4.02949 9.98488 3.48468 8.89974 3.48468ZM8.89974 4.94301C9.5511 4.94301 10.4125 5.28935 11.3477 5.93097C10.7978 6.44987 10.2593 7.03992 9.74121 7.69692C8.9009 7.81741 8.10861 7.99305 7.37467 8.21287C7.37073 8.16197 7.3614 8.10856 7.3584 8.05824C7.26923 6.57491 7.595 5.46918 8.22916 5.10252C8.41666 4.99419 8.63557 4.94301 8.89974 4.94301ZM16.1003 4.94301C16.3636 4.94301 16.5833 4.99419 16.7708 5.10252C17.405 5.46835 17.7308 6.57491 17.6416 8.05825C17.6386 8.10857 17.6293 8.16198 17.6253 8.21288C16.8909 7.99293 16.0981 7.81743 15.2572 7.69693C14.7391 7.04002 14.2022 6.44982 13.6523 5.93098C14.5875 5.28947 15.4492 4.94301 16.1003 4.94301ZM12.5 6.85708C12.7259 7.0627 12.9502 7.28001 13.1771 7.51789C12.9523 7.51034 12.7286 7.49999 12.5 7.49999C12.2719 7.49999 12.0488 7.51038 11.8245 7.51789C12.0512 7.28026 12.2743 7.0625 12.5 6.85708ZM12.5 8.95831C13.1906 8.95831 13.8451 8.99691 14.4661 9.0641C14.8449 9.57889 15.2181 10.1232 15.568 10.7291C15.9034 11.31 16.2 11.9046 16.4616 12.5C16.1999 13.0958 15.9036 13.6912 15.568 14.2724C15.2192 14.8767 14.8469 15.4174 14.4694 15.931C13.8264 16.0013 13.1669 16.0416 12.5 16.0416C11.8094 16.0416 11.1549 16.003 10.5339 15.9358C10.1551 15.4211 9.78186 14.8784 9.43197 14.2724C9.09641 13.6912 8.80017 13.0958 8.53842 12.5C8.79999 11.9046 9.09661 11.31 9.43197 10.7291C9.78091 10.1249 10.153 9.58252 10.5306 9.06899C11.1736 8.99864 11.8331 8.95831 12.5 8.95831ZM16.4551 9.40916C16.7857 9.48899 17.1035 9.57515 17.4023 9.6712C17.3346 9.97708 17.2519 10.2888 17.1582 10.6038C17.051 10.4026 16.947 10.2007 16.831 9.99998C16.7118 9.79348 16.5794 9.60794 16.4551 9.40916ZM8.54329 9.41079C8.41941 9.60896 8.28783 9.79414 8.16894 9.99998C8.05305 10.2008 7.94899 10.4026 7.84179 10.6038C7.74791 10.2882 7.66378 9.97606 7.59602 9.66958C7.90031 9.57344 8.21736 9.4883 8.54329 9.41079ZM6.22396 10.2051C6.39954 10.9464 6.64311 11.7149 6.95638 12.4983C6.64377 13.2799 6.40123 14.047 6.22559 14.7867C4.77437 14.086 3.95834 13.2136 3.95834 12.5C3.95834 11.7675 4.75157 10.9327 6.08074 10.2685C6.12611 10.2458 6.1776 10.2272 6.22396 10.2051ZM18.7744 10.2132C20.2256 10.914 21.0417 11.7863 21.0417 12.5C21.0417 13.2325 20.2484 14.0673 18.9193 14.7314C18.8739 14.7541 18.8224 14.7727 18.776 14.7949C18.6004 14.0531 18.3588 13.2839 18.0453 12.5C18.3575 11.7191 18.5989 10.9523 18.7744 10.2132ZM12.5 10.8333C11.5792 10.8333 10.8333 11.5791 10.8333 12.5C10.8333 13.4208 11.5792 14.1666 12.5 14.1666C13.4208 14.1666 14.1667 13.4208 14.1667 12.5C14.1667 11.5791 13.4208 10.8333 12.5 10.8333ZM7.8418 14.3961C7.94906 14.5974 8.05461 14.7992 8.17057 15C8.28971 15.2063 8.42076 15.3922 8.54492 15.5908C8.2143 15.511 7.89646 15.4248 7.59766 15.3287C7.6654 15.0227 7.74806 14.7113 7.8418 14.3961ZM17.1582 14.3978C17.252 14.7131 17.3363 15.0242 17.404 15.3304C17.0997 15.4265 16.7826 15.5116 16.4567 15.5892C16.5806 15.391 16.7122 15.2058 16.831 15C16.9467 14.7996 17.0512 14.5986 17.1582 14.3978ZM7.37467 16.7871C8.10908 17.007 8.90194 17.1825 9.74284 17.303C10.2611 17.9603 10.7976 18.5516 11.3477 19.0706C10.4125 19.712 9.55106 20.0586 8.89974 20.0586C8.63641 20.0586 8.41666 20.0058 8.22916 19.8974C7.595 19.5316 7.26923 18.4267 7.3584 16.9433C7.36145 16.8925 7.37067 16.8385 7.37467 16.7871ZM17.6253 16.7871C17.6293 16.8385 17.6386 16.8925 17.6416 16.9433C17.7308 18.4267 17.405 19.5308 16.7708 19.8974C16.5833 20.0058 16.3644 20.0586 16.1003 20.0586C15.4489 20.0586 14.5875 19.7121 13.6523 19.0706C14.2025 18.5515 14.7404 17.9603 15.2588 17.303C16.0991 17.1825 16.8914 17.0069 17.6253 16.7871ZM11.8229 17.4821C12.0477 17.4896 12.2714 17.5 12.5 17.5C12.7286 17.5 12.9523 17.4896 13.1771 17.4821C12.9502 17.7199 12.7259 17.9373 12.5 18.1429C12.2741 17.9373 12.0498 17.7199 11.8229 17.4821Z" fill="black"/>
</svg>
