<svg width="25" height="25" viewBox="0 0 25 25" fill="none" xmlns="http://www.w3.org/2000/svg">
<path d="M12.023 5.87343C11.1725 4.59791 10.9886 2.89322 10.9485 2.1927C8.7881 2.65989 6.64175 3.49791 6.76571 4.1151C6.78133 4.1927 6.87925 4.28593 7.04175 4.37655L6.78758 4.83124C6.47717 4.65728 6.30269 4.45676 6.25529 4.21718C6.11519 3.51874 6.90633 2.88697 8.673 2.28541C9.87925 1.87447 11.0959 1.62916 11.1475 1.61926L11.4584 1.55676V1.87499C11.4584 1.89687 11.472 4.10832 12.4563 5.58489L12.023 5.87343Z" fill="#CFD8DC"/>
<path d="M12.8911 22.3958H12.7604C8.49368 22.3958 3.74525 21.0557 3.18431 18.813C2.84212 17.4432 3.96139 15.9297 6.42077 14.4375L6.6916 14.8823C4.47858 16.2255 3.41243 17.576 3.69004 18.687C4.17702 20.6338 8.67702 21.8474 12.6239 21.8745C13.0932 21.1729 15.6145 17.0516 14.1755 11.5239L14.6791 11.3927C16.3192 17.6906 13.0031 22.2453 12.9697 22.2906L12.8911 22.3958Z" fill="#CFD8DC"/>
<path d="M5.17239 20.4718C4.89166 20.4718 4.7526 20.4411 4.72968 20.4354C4.63802 20.413 4.56614 20.3427 4.54114 20.252C4.51562 20.1614 4.54166 20.064 4.60833 19.9979C4.64583 19.9604 8.35677 16.2437 8.85781 13.2385L9.37135 13.3239C8.94062 15.9093 6.39479 18.8567 5.38385 19.9421C6.39374 19.8843 8.94374 19.4114 13.8391 16.6713C10.0187 16.2526 9.41458 13.1942 9.40833 13.1614L9.92031 13.0671C9.94479 13.1953 10.5588 16.1979 14.7349 16.1979C14.7365 16.1979 14.7375 16.1979 14.7391 16.1979C14.8573 16.1979 14.9599 16.277 14.9901 16.3906C15.0213 16.5041 14.9713 16.6244 14.8698 16.6838C9.01822 20.0739 6.18072 20.4713 5.17239 20.4718Z" fill="#CFD8DC"/>
<path d="M7.56465 21.7188C7.45684 21.7188 7.35892 21.6521 7.3209 21.5495C7.27975 21.4396 7.31725 21.3151 7.41309 21.2464C7.43079 21.2333 8.35736 20.5495 9.34329 19.0443C8.96413 18.8766 8.58027 18.6807 8.19954 18.4521C7.73704 18.1745 7.38756 17.8766 7.12663 17.5714C5.78809 17.9245 4.55267 18.0641 3.46777 17.9719L3.51152 17.4531C4.48861 17.5359 5.59954 17.4203 6.80371 17.1198C5.98444 15.7198 6.73652 14.3302 6.74694 14.3115L7.20215 14.5651C7.16725 14.6287 6.54329 15.7995 7.33184 16.9781C8.47819 16.649 9.70111 16.162 10.9667 15.5292C11.2579 14.5734 11.4855 13.4865 11.6048 12.2604C11.6131 12.1766 11.661 12.1021 11.7339 12.0599C11.8068 12.0177 11.8959 12.0141 11.9725 12.049C11.9891 12.0568 13.6725 12.8255 14.8912 13.3271C14.9798 13.3635 15.0412 13.4458 15.0511 13.5412C15.0615 13.6365 15.0183 13.7292 14.9386 13.7833C13.7464 14.5958 12.562 15.3005 11.4084 15.8885C11.0428 17.0474 10.5902 18.012 10.1277 18.8005C12.0558 19.5208 13.7292 19.5318 13.7506 19.5318C13.8693 19.5318 13.973 19.612 14.0027 19.7271C14.0324 19.8422 13.9808 19.9625 13.8771 20.0203C11.5126 21.3339 7.7485 21.7037 7.58965 21.7188C7.58131 21.7182 7.57298 21.7188 7.56465 21.7188ZM9.8485 19.2537C9.30684 20.0943 8.77454 20.6979 8.37663 21.0922C9.41725 20.9391 11.2417 20.6037 12.7558 19.9781C12.0308 19.8891 10.9813 19.6912 9.8485 19.2537ZM7.69121 17.412C7.8959 17.6162 8.15111 17.8156 8.46725 18.0057C8.85059 18.2359 9.23965 18.4313 9.6235 18.5969C10.0162 17.9385 10.4053 17.1484 10.7391 16.2177C9.68652 16.7188 8.66465 17.1188 7.69121 17.412ZM12.0844 12.6714C11.9777 13.5922 11.8131 14.4323 11.6089 15.1974C12.4735 14.7365 13.3558 14.2099 14.2454 13.6214C13.4386 13.2797 12.5516 12.8823 12.0844 12.6714Z" fill="#CFD8DC"/>
<path d="M9.33533 5.52081C9.2744 5.52081 9.21398 5.49893 9.16606 5.45831C8.32752 4.7406 7.34054 3.28018 7.29888 3.2182C7.23169 3.11872 7.24211 2.98591 7.32283 2.89737C7.40304 2.80831 7.53533 2.78747 7.6395 2.84424C7.64523 2.84581 8.12804 3.04477 11.3984 3.58956C11.4926 3.60518 11.5702 3.67081 11.6015 3.76039C11.6333 3.84997 11.6129 3.94997 11.5494 4.02081C10.6338 5.03799 9.477 5.48591 9.42804 5.50414C9.39783 5.51508 9.36606 5.52081 9.33533 5.52081ZM8.1494 3.51352C8.47804 3.9557 8.95148 4.5531 9.38481 4.9557C9.65096 4.83435 10.2478 4.52966 10.814 4.01924C9.46867 3.78956 8.64783 3.62602 8.1494 3.51352Z" fill="#CFD8DC"/>
<path d="M11.3766 12.7084C11.3412 12.7084 11.3053 12.7011 11.272 12.6865C11.1683 12.6407 11.1058 12.5334 11.1178 12.4209C11.2699 10.9891 9.073 10.4146 9.0506 10.4094C8.95998 10.3865 8.8881 10.3162 8.86362 10.2261C8.83914 10.136 8.86466 10.0391 8.93081 9.97296C9.03862 9.86515 11.6074 7.31775 14.8303 5.91879C14.9204 5.87973 15.0225 5.89431 15.0985 5.95525C15.174 6.01671 15.2089 6.11515 15.1891 6.20994C14.5714 9.20161 11.6944 12.4829 11.5725 12.6209C11.5209 12.6776 11.449 12.7084 11.3766 12.7084ZM9.61206 10.0443C10.2287 10.2761 11.3089 10.8125 11.5824 11.7922C12.3371 10.8506 13.948 8.68129 14.5496 6.61827C12.2647 7.71723 10.3407 9.37452 9.61206 10.0443Z" fill="#B71C1C"/>
<path d="M6.81209 14.7709L6.5647 14.3125C7.54543 13.7839 8.66886 12.811 9.58918 11.6802C8.80584 12.2167 8.35741 12.5839 8.34334 12.5959L8.01053 12.1948C8.03084 12.1781 8.92928 11.4412 10.4225 10.5177C10.8324 9.85836 11.1475 9.18023 11.3095 8.53023C11.3371 8.41981 11.3611 8.31304 11.3803 8.20992C10.3777 7.85211 9.45272 7.64013 8.8173 7.54898C8.72095 7.53544 8.64074 7.46929 8.60845 7.37815C8.57616 7.287 8.59751 7.18492 8.66261 7.11409C8.70688 7.06617 9.7647 5.93284 11.0866 5.31044C11.1892 5.262 11.3121 5.28596 11.3892 5.36982C11.4241 5.40784 12.1392 6.21096 11.9574 7.87242C12.559 8.10679 13.1788 8.39169 13.7756 8.73075C15.2126 8.08492 16.8444 7.50367 18.5824 7.15263C18.672 7.13492 18.7715 7.16721 18.8329 7.24013C18.8939 7.31304 18.9105 7.41356 18.8762 7.50211C18.1991 9.23752 16.3834 11.0912 16.3064 11.1693C16.2538 11.2224 16.1819 11.249 16.1069 11.2464C16.0324 11.2422 15.9637 11.2068 15.9168 11.1485C15.3334 10.4151 14.5709 9.80784 13.7486 9.31356C12.6157 9.83648 11.6126 10.3959 10.7881 10.9016C9.73605 12.5438 8.14803 14.0516 6.81209 14.7709ZM14.3189 9.06044C14.9907 9.49377 15.6163 10.0031 16.1334 10.5959C16.5647 10.1281 17.5996 8.94586 18.1866 7.7719C16.8064 8.08961 15.5001 8.5495 14.3189 9.06044ZM11.8746 8.3969C11.8574 8.48179 11.8376 8.56877 11.8157 8.65731C11.7064 9.09429 11.5324 9.54325 11.3095 9.99117C11.8803 9.66513 12.5121 9.32867 13.1939 9.00263C12.7574 8.77138 12.3121 8.57034 11.8746 8.3969ZM9.40011 7.12086C9.97876 7.2344 10.6918 7.41981 11.4527 7.68648C11.5319 6.72659 11.2725 6.13856 11.1157 5.87815C10.3991 6.25211 9.77147 6.77815 9.40011 7.12086Z" fill="#B71C1C"/>
<path d="M9.40104 9.63546C9.40104 11.9167 7.5 13.7292 6.13021 15.0521C5.90104 15.2761 5.125 15.3125 5.125 15.3125C5.31771 15.1146 5.53646 14.9063 5.77083 14.6823C7.07292 13.4219 8.88021 11.698 8.88021 9.63546C8.88021 7.19275 7.89583 6.22921 7.11979 5.45837C6.77604 5.10942 6.48437 4.77608 6.30729 4.36983L6.46875 4.30212C6.64583 4.38025 6.84896 4.46879 7.00521 4.5365C7.13021 4.71879 7.29687 4.89587 7.48958 5.08858C8.28646 5.88546 9.40104 6.97921 9.40104 9.63546Z" fill="#B71C1C"/>
<path d="M22.362 10.3094C22.362 10.3094 22.0469 10.3542 21.9583 10.3646C17.3958 10.8698 12.6875 12.1823 9.99479 13.2605C9.02083 13.6511 8.01042 14.125 7.08854 14.6563C7.08333 14.6615 7.07812 14.6615 7.06771 14.6667C6.52604 14.9792 5.20833 15.625 4.14062 16.1927C5.70312 14.5313 8.63021 13.25 9.79687 12.7813C12.4375 11.724 16.974 10.448 21.4375 9.90108C20.9115 9.2865 19.625 7.98442 17.0937 7.01567C15.6146 6.44275 13.3646 6.11983 11.3802 5.83337C8.22396 5.38025 6.42708 5.07817 6.25521 4.21879C6.21875 4.04692 6.24479 3.87504 6.32292 3.70837C6.49479 3.98962 6.73958 4.18754 6.90104 4.30212C6.97917 4.35421 7.03646 4.38546 7.05729 4.39587L7.0625 4.40108C7.80208 4.79171 9.79687 5.07817 11.4583 5.31775C13.4687 5.60942 15.7448 5.93754 17.2812 6.52608C20.8594 7.90629 22.0937 9.88025 22.1458 9.96358C22.1927 10.0417 22.362 10.3094 22.362 10.3094Z" fill="#B71C1C"/>
</svg>
