<svg width="25" height="25" viewBox="0 0 25 25" fill="none" xmlns="http://www.w3.org/2000/svg">
<path d="M18.75 13.5417C16.8146 13.5417 15.1156 12.1906 12.7625 10.3209C11.1781 9.06148 7.54789 8.6344 6.97914 9.0771L5.51351 7.5969C7.65205 5.45731 8.94372 4.16669 11.4583 4.16669C14.6021 4.16669 16.8896 5.92502 18.7281 7.3396C19.3052 7.78231 19.85 8.20106 20.3187 8.4771C20.675 8.68648 21.4364 8.93127 22.0739 8.74065C22.4812 8.62085 22.7916 8.3344 23.026 7.86773L24.9364 8.68961C23.8323 11.7281 21.5198 13.5417 18.75 13.5417ZM9.35726 6.9094C11.1354 7.15315 13.0156 7.86044 14.0593 8.68961C16.2833 10.4584 17.5979 11.4584 18.75 11.4584C19.526 11.4584 20.2448 11.2427 20.8771 10.8344C20.2406 10.7334 19.6708 10.5115 19.2646 10.2729C18.6843 9.93127 18.0896 9.47398 17.4604 8.99065C15.7875 7.70523 13.8927 6.25002 11.4583 6.25002C10.6396 6.25002 10.0427 6.43335 9.35726 6.9094ZM13.5416 20.8334C11.6062 20.8334 9.90726 19.4823 7.55414 17.6125C5.9708 16.3542 2.33955 15.924 1.7708 16.3688L0.305176 14.8886C2.44372 12.749 3.73538 11.4584 6.24997 11.4584C9.39372 11.4584 11.6812 13.2167 13.5198 14.6313C14.0968 15.074 14.6416 15.4927 15.1104 15.7688C15.4666 15.9781 16.2281 16.2198 16.8656 16.0323C17.2729 15.9125 17.5833 15.6261 17.8177 15.1594L19.7281 15.9813C18.6239 19.0198 16.3114 20.8334 13.5416 20.8334ZM4.14893 14.2011C5.92705 14.4448 7.80726 15.1521 8.85101 15.9813C11.075 17.75 12.3896 18.75 13.5416 18.75C14.3177 18.75 15.0364 18.5344 15.6687 18.1261C15.0323 18.025 14.4625 17.8031 14.0562 17.5646C13.476 17.2229 12.8812 16.7656 12.2521 16.2823C10.5791 14.9969 8.68434 13.5417 6.24997 13.5417C5.43122 13.5417 4.83434 13.725 4.14893 14.2011Z" fill="black"/>
</svg>
