<svg width="24" height="24" viewBox="0 0 24 24" fill="none" xmlns="http://www.w3.org/2000/svg">
<g clip-path="url(#clip0_30_743)">
<path d="M17.04 0.95998C16.7356 0.95998 16.4517 1.07582 16.2393 1.26654C16.2363 1.2695 16.1949 1.31031 16.1793 1.32748C16.1634 1.34505 16.1421 1.37005 16.1137 1.40154C16.057 1.46451 15.9748 1.55484 15.8718 1.66966C15.6658 1.89932 15.3744 2.22562 15.0253 2.6156C14.3271 3.39558 13.4001 4.43208 12.4743 5.46748L9.08152 9.26248C8.23635 8.57611 7.29241 7.81 6.61871 7.26279C5.97934 6.74346 5.4455 6.30986 5.06902 6.00372C4.88079 5.85066 4.7319 5.72918 4.62934 5.6456C4.57805 5.60381 4.5383 5.57121 4.51121 5.54904C4.49946 5.53942 4.49068 5.53295 4.48402 5.52748L4.48309 5.52654H4.48215C4.31303 5.37483 4.08504 5.27998 3.83997 5.27998C3.65322 5.27998 3.6031 5.31777 3.50809 5.35217C3.41308 5.38657 3.31006 5.43009 3.19684 5.48061C2.97041 5.58164 2.70631 5.7115 2.45059 5.84061C1.93915 6.09882 1.4634 6.35529 1.4634 6.35529L1.46621 6.36092C1.16762 6.52489 0.959961 6.83964 0.959961 7.19998V17.28C0.959961 17.6562 1.18553 17.9838 1.50559 18.1406L1.50371 18.1444C1.50371 18.1444 1.9446 18.3691 2.4084 18.6028C2.6403 18.7196 2.87847 18.8387 3.07028 18.9337C3.26208 19.0287 3.36921 19.0849 3.47997 19.1297C3.59066 19.1745 3.71357 19.2 3.83997 19.2C4.00894 19.2 4.17237 19.1538 4.31247 19.0744L4.3134 19.0753C4.3135 19.0752 4.35736 19.0467 4.36309 19.0425C4.36883 19.0382 4.37198 19.0368 4.37435 19.035C4.37908 19.0313 4.38111 19.0286 4.38372 19.0265C4.38894 19.0224 4.39382 19.0191 4.39966 19.0144C4.41132 19.0048 4.42691 18.9922 4.44653 18.9759C4.48576 18.9434 4.54171 18.897 4.61247 18.8381C4.754 18.7202 4.95389 18.5528 5.19372 18.3525C5.67338 17.9517 6.3105 17.4187 6.94684 16.8862C8.04735 15.9653 8.86823 15.2779 9.14528 15.0459C10.8834 16.9325 12.6231 18.8207 13.934 20.2425C14.607 20.9724 15.1704 21.583 15.5681 22.0134C15.7669 22.2286 15.9244 22.3987 16.034 22.5168C16.0888 22.5759 16.1311 22.6221 16.1615 22.6547C16.1767 22.6709 16.1894 22.6829 16.199 22.6931C16.2087 22.7033 16.1785 22.6791 16.2412 22.7353L16.2422 22.7362C16.4537 22.9246 16.7367 23.04 17.04 23.04C17.2179 23.04 17.386 22.9976 17.5387 22.9265L17.5406 22.9303C17.5406 22.9303 18.695 22.3331 19.8665 21.7256C20.4523 21.4219 21.0422 21.1154 21.495 20.88C21.7213 20.7622 21.9135 20.6617 22.0537 20.5884C22.1939 20.5151 22.2501 20.4873 22.3143 20.4506C22.7484 20.2023 23.04 19.7317 23.04 19.2V4.79997C23.04 4.30645 22.7884 3.86504 22.4053 3.60653C22.3401 3.56242 22.3335 3.56294 22.2881 3.53809C22.2427 3.51323 22.1836 3.48161 22.1118 3.4434C21.9683 3.36698 21.7737 3.26418 21.5447 3.14434C21.0867 2.90464 20.4916 2.59536 19.9012 2.28934C18.7209 1.67747 17.561 1.0794 17.5603 1.07902H17.5593C17.4015 1.00334 17.2242 0.95998 17.04 0.95998ZM17.04 1.91998C17.0925 1.91998 17.135 1.93399 17.174 1.96029C17.2386 2.00397 17.28 2.07319 17.28 2.15998V6.97592L11.8603 11.519C11.5784 11.2903 11.577 11.2892 11.2931 11.0587C10.7612 10.627 10.347 10.2907 9.82777 9.86904C10.1185 9.5436 11.5061 7.9897 13.1897 6.10685C14.1154 5.07153 15.0426 4.0347 15.7406 3.25498C16.0896 2.86511 16.3816 2.54006 16.5871 2.31091C16.6899 2.19634 16.7704 2.10573 16.8262 2.04372C16.8514 2.01571 16.8701 1.99472 16.8843 1.97903C16.9259 1.94292 16.9772 1.91998 17.04 1.91998ZM18.24 2.51154C18.6828 2.74014 18.8449 2.82287 19.4597 3.14154C20.0494 3.44727 20.6444 3.75704 21.1003 3.99561C21.3282 4.11489 21.5211 4.2165 21.6609 4.29092C21.7308 4.32813 21.7874 4.35836 21.8268 4.37998C21.8663 4.4016 21.9132 4.43269 21.8671 4.40154H21.8681V4.40248C21.9957 4.48861 22.08 4.6311 22.08 4.79998V19.2C22.08 19.3825 21.982 19.5343 21.8371 19.6172C21.8663 19.6005 21.7474 19.6654 21.6084 19.7381C21.4694 19.8108 21.2785 19.9102 21.0525 20.0278C20.6004 20.2629 20.0096 20.5698 19.424 20.8734C18.8274 21.1828 18.6771 21.2602 18.24 21.4865V2.51154ZM3.85308 6.25123C3.85675 6.25412 3.8653 6.26146 3.86996 6.2653C3.87829 6.27216 3.88876 6.28102 3.90277 6.29248C3.93081 6.31542 3.97124 6.34798 4.02277 6.38998C4.12585 6.47398 4.27409 6.59494 4.46246 6.74811C4.83921 7.05445 5.37365 7.48872 6.01309 8.00811C7.29197 9.04688 8.99159 10.4266 10.6884 11.804C13.9882 14.4828 17.1005 17.0087 17.28 17.1544V21.84C17.28 21.9326 17.2312 22.006 17.159 22.0462C17.1582 22.0467 17.1256 22.0639 17.1253 22.064C17.0988 22.0735 17.0707 22.08 17.04 22.08C16.9767 22.08 16.9258 22.0578 16.8834 22.0209C16.8771 22.0143 16.8721 22.0084 16.8628 21.9984C16.834 21.9677 16.7915 21.922 16.7372 21.8634C16.6285 21.7463 16.4717 21.5768 16.2731 21.3619C15.8759 20.932 15.3129 20.3216 14.64 19.5919C13.2942 18.1323 11.5076 16.1939 9.72278 14.2565C7.93794 12.3192 6.15478 10.3833 4.81497 8.92967C4.14506 8.20286 3.58609 7.59665 3.19309 7.17092C3.02323 6.98691 2.90005 6.85433 2.79653 6.74248C2.84019 6.7202 2.83832 6.71993 2.88278 6.69748C3.13094 6.57219 3.38662 6.44693 3.58778 6.35717C3.68836 6.31229 3.77659 6.27623 3.83528 6.25498C3.84281 6.25226 3.84571 6.25312 3.85308 6.25123ZM1.91996 7.20842C1.94713 7.23761 1.98245 7.2755 2.03059 7.32748C2.13668 7.44204 2.29176 7.60886 2.48809 7.82155C2.69928 8.05033 3.06131 8.44333 3.35997 8.76748V15.6675L1.92184 17.2772C1.92092 17.2787 1.92082 17.28 1.91997 17.28L1.91996 7.20842ZM17.28 8.22842V15.9178C16.7677 15.5021 14.8616 13.9548 12.6197 12.135L17.28 8.22842ZM4.31996 9.80904C4.92866 10.4695 5.75285 11.3646 6.48934 12.164L4.31996 14.5922V9.80904ZM7.14277 12.8728C7.61616 13.3867 8.00372 13.8081 8.49371 14.34C8.19509 14.59 7.41337 15.2445 6.3309 16.1503C5.69464 16.6827 5.058 17.2152 4.57871 17.6156C4.33906 17.8158 4.13919 17.983 3.9984 18.1003C3.928 18.1589 3.87214 18.2049 3.83434 18.2362L3.8334 18.2372C3.84857 18.2429 3.68057 18.1646 3.4959 18.0731C3.30773 17.9799 3.07141 17.8622 2.84059 17.7459C2.82278 17.7369 2.82362 17.737 2.8059 17.7281L7.14277 12.8728ZM3.84465 18.2372L4.0659 18.6328L3.83903 18.2409L3.83996 18.24C3.84065 18.2395 3.84466 18.2372 3.84465 18.2372Z" fill="black"/>
</g>
<defs>
<clipPath id="clip0_30_743">
<rect width="24" height="24" fill="white"/>
</clipPath>
</defs>
</svg>
