<svg width="24" height="24" viewBox="0 0 24 24" fill="none" xmlns="http://www.w3.org/2000/svg">
<path d="M15.7693 2.29398C15.7084 2.29264 15.6478 2.29615 15.5876 2.30394C15.3467 2.33512 15.1152 2.43898 14.9284 2.61097L7.37863 9.56723L4.8339 7.60961V7.60902C4.457 7.31931 3.91115 7.37599 3.60168 7.73734L2.5464 8.96781C2.23422 9.33187 2.26558 9.88549 2.61613 10.2123C2.6171 10.2131 2.61808 10.2139 2.61906 10.2147L4.61593 12.0287L2.64132 13.7842C2.277 14.1079 2.23842 14.6727 2.55578 15.0428L3.60168 16.2627C3.91115 16.6241 4.457 16.6808 4.8339 16.3911L7.31652 14.4821L14.9302 21.3979C15.3038 21.7372 15.8525 21.8061 16.2984 21.5702L20.3612 19.4192C20.7535 19.2115 20.9993 18.8025 20.9993 18.3586V5.64203C20.9993 5.1982 20.7535 4.78921 20.3612 4.58148L16.303 2.43285C16.1348 2.3438 15.9518 2.29802 15.7693 2.29398ZM15.6644 2.89808C15.7845 2.88254 15.9095 2.90336 16.0224 2.96312L20.0806 5.11176C20.2775 5.21603 20.3993 5.41926 20.3993 5.64203V18.3586C20.3993 18.5814 20.2775 18.7846 20.0806 18.8889L16.0177 21.0399C15.7936 21.1584 15.5219 21.124 15.3339 20.9537L15.3333 20.9532L3.02453 9.7723C2.90566 9.66049 2.89595 9.48261 3.00226 9.35863L4.05695 8.12758H4.05753C4.16313 8.00428 4.33883 7.98614 4.46769 8.0848L7.17472 10.1672L7.17589 10.1684C7.19757 10.1911 7.22268 10.2103 7.25031 10.2252L9.82843 12.2086C9.85007 12.2316 9.87518 12.2509 9.90285 12.2661C9.90343 12.2663 9.90402 12.2664 9.9046 12.2666L15.7171 16.7379C15.7615 16.7721 15.8146 16.7931 15.8703 16.7986C15.9261 16.8041 15.9823 16.7939 16.0325 16.7691C16.0827 16.7444 16.125 16.7061 16.1546 16.6585C16.1842 16.6109 16.1999 16.556 16.1999 16.5V7.50004C16.1999 7.44403 16.1842 7.38914 16.1546 7.34158C16.125 7.29402 16.0827 7.25569 16.0325 7.23094C15.9823 7.20618 15.9261 7.19599 15.8703 7.2015C15.8146 7.20702 15.7615 7.22802 15.7171 7.26215L10.0499 11.6215L7.86144 9.93812L15.3351 3.05219C15.4291 2.96558 15.5442 2.91363 15.6644 2.89808ZM15.8999 3.60004C15.7349 3.60004 15.5999 3.73211 15.5999 3.89711C15.5999 4.06511 15.7349 4.20004 15.8999 4.20004C16.0649 4.20004 16.1999 4.06511 16.1999 3.89711C16.1999 3.73211 16.0649 3.60004 15.8999 3.60004ZM15.8999 4.80004C15.7349 4.80004 15.5999 4.93504 15.5999 5.10004C15.5999 5.26534 15.7349 5.40004 15.8999 5.40004C16.0649 5.40004 16.1999 5.26534 16.1999 5.10004C16.1999 4.93504 16.0649 4.80004 15.8999 4.80004ZM15.8999 6.00004C15.7349 6.00004 15.5999 6.13152 15.5999 6.29652C15.5999 6.46482 15.7349 6.60004 15.8999 6.60004C16.0649 6.60004 16.1999 6.46482 16.1999 6.29652C16.1999 6.13152 16.0649 6.00004 15.8999 6.00004ZM15.5999 8.10941V15.8907L10.5421 12L15.5999 8.10941ZM5.063 12.4348L6.86535 14.0719L4.46769 15.9153C4.33883 16.0139 4.16313 15.9958 4.05753 15.8725H4.05695L3.01105 14.652C2.90241 14.5253 2.91508 14.3438 3.03976 14.233L5.063 12.4348ZM15.8999 17.4C15.7349 17.4 15.5999 17.5321 15.5999 17.6971C15.5999 17.8651 15.7349 18 15.8999 18C16.0649 18 16.1999 17.8651 16.1999 17.6971C16.1999 17.5321 16.0649 17.4 15.8999 17.4ZM15.8999 18.6C15.7349 18.6 15.5999 18.735 15.5999 18.9C15.5999 19.0653 15.7349 19.2 15.8999 19.2C16.0649 19.2 16.1999 19.0653 16.1999 18.9C16.1999 18.735 16.0649 18.6 15.8999 18.6ZM15.8999 19.8C15.7349 19.8 15.5999 19.9315 15.5999 20.0965C15.5999 20.2648 15.7349 20.4 15.8999 20.4C16.0649 20.4 16.1999 20.2648 16.1999 20.0965C16.1999 19.9315 16.0649 19.8 15.8999 19.8Z" fill="black"/>
</svg>
